<svg width="16" height="16" viewBox="0 0 16 16" fill="none" xmlns="http://www.w3.org/2000/svg">
<path d="M12.4535 12.3189H3.8157V3.68107H12.4535M12.4535 2.4471H3.8157C3.48843 2.4471 3.17456 2.57711 2.94315 2.80852C2.71173 3.03994 2.58173 3.3538 2.58173 3.68107V12.3189C2.58173 12.6462 2.71173 12.96 2.94315 13.1914C3.17456 13.4229 3.48843 13.5529 3.8157 13.5529H12.4535C12.7808 13.5529 13.0947 13.4229 13.3261 13.1914C13.5575 12.96 13.6875 12.6462 13.6875 12.3189V3.68107C13.6875 3.3538 13.5575 3.03994 13.3261 2.80852C13.0947 2.57711 12.7808 2.4471 12.4535 2.4471ZM9.34391 8.17891L7.64719 10.363L6.4379 8.90695L4.74118 11.0849H11.528L9.34391 8.17891Z" fill="white"/>
</svg>
