<svg width="27" height="25" viewBox="0 0 27 25" fill="none" xmlns="http://www.w3.org/2000/svg">
<path d="M20.3464 3.72766V2.48511C20.3464 1.82601 20.0846 1.19392 19.6186 0.727871C19.1525 0.261823 18.5204 0 17.8613 0H15.3762C14.7171 0 14.085 0.261823 13.619 0.727871C13.1529 1.19392 12.8911 1.82601 12.8911 2.48511V3.72766H10.406V2.48511C10.406 1.82601 10.1442 1.19392 9.67813 0.727871C9.21208 0.261823 8.57999 0 7.9209 0H5.43579C4.7767 0 4.1446 0.261823 3.67855 0.727871C3.21251 1.19392 2.95068 1.82601 2.95068 2.48511V3.72766H0.465576V21.1234H14.1337V18.6383H2.95068V6.21277H20.3464V12.4255H22.8315V3.72766M22.8315 14.9106V18.6383H26.5592V21.1234H22.8315V24.8511H20.3464V21.1234H16.6188V18.6383H20.3464V14.9106H22.8315Z" fill="#EFEFEF"/>
</svg>
